<svg xmlns="http://www.w3.org/2000/svg" viewBox="0 0 216.93 216.93"><defs><style>.cls-1{fill:#f37321;}.cls-2{fill:#fff;}</style></defs><g id="Layer_2" data-name="Layer 2"><g id="Layer_1-2" data-name="Layer 1"><rect class="cls-1" width="216.93" height="216.93" rx="47.87"/><path class="cls-2" d="M51.25,30.94A8.57,8.57,0,0,1,58.72,33c14.21,11.28,28.56,22.38,42.84,33.59a3,3,0,0,1,1.08,2q.1,28.32.06,56.64a4.07,4.07,0,0,1-.1.6H91.17v-1.94q0-24.24,0-48.47a2.8,2.8,0,0,0-.75-2C81.3,66.2,72.15,59,62.8,51.65V186.16H51.25Z"/><path class="cls-2" d="M127.18,132.41c0-8.49.16-16.68-.06-24.85A12.47,12.47,0,0,1,133,96.11q14.37-9.72,28.8-19.37s.1,0,.32.09c0,4.44,0,8.92-.05,13.41,0,.43-.66.94-1.13,1.26q-10.4,6.94-20.85,13.82a2.83,2.83,0,0,0-1.43,2.71c0,7.3-.06,14.59-.11,21.89V132c.72,0,1.26.07,1.8.07h15.37a9.39,9.39,0,0,1,9.64,8.53,76.55,76.55,0,0,1,.3,8.16q.06,17.72.05,35.42c0,.6,0,1.21,0,1.94H154.07v-1.72q0-18,0-36.08c0-3.62-.75-4.35-4.44-4.35l-45.77.07-27.73,0c-.38,0-.75,0-1.22-.05V132.41Z"/><path class="cls-2" d="M102.64,186.13H91.3V150.32h11.34Z"/></g></g></svg>